<?xml version="1.0" standalone="no"?>
<svg viewBox="0 0 200 200" xmlns="http://www.w3.org/2000/svg">
  <path fill="#4B4376" d="M40.7,-72.5C47,-59.3,42.4,-38.3,47.5,-22.9C52.6,-7.6,67.4,2.1,69,11.9C70.7,21.7,59.2,31.5,47.7,37.1C36.3,42.7,24.8,44,12.9,50.3C1.1,56.6,-11.1,67.9,-21.3,67.2C-31.5,66.6,-39.7,54.1,-50.4,43C-61.1,31.9,-74.3,22.2,-76.6,10.6C-79,-1.1,-70.5,-14.7,-62.7,-27.4C-55,-40.2,-48,-52,-37.7,-63.4C-27.4,-74.8,-13.7,-85.7,1.8,-88.5C17.2,-91.2,34.4,-85.8,40.7,-72.5Z" transform="translate(100 100)" />
</svg>
